<svg width="74" height="76" viewBox="0 0 74 76" fill="none" xmlns="http://www.w3.org/2000/svg">
<path d="M73.243 15.9585C72.8302 15.2969 72.1164 14.902 71.3356 14.902H56.9239C55.4992 6.45851 48.1541 0 39.3112 0C29.4506 0 21.4289 8.02173 21.4289 17.8824C21.4289 26.3422 27.6013 31.2464 29.9245 33.0928C30.0869 33.2224 30.233 33.3372 30.3567 33.437C30.2956 34.4191 30.0065 36.6186 28.6221 37.5887C27.6296 38.2861 26.1096 38.2891 24.1083 37.5917C22.3498 36.9792 20.6912 35.9018 19.1787 34.3878L10.3225 25.5315C9.68317 24.8952 8.81736 24.5644 7.90387 24.6315C7.0023 24.6985 6.17524 25.1545 5.6343 25.8847C3.33344 28.9933 -0.38162 35.5933 0.566145 44.7387C0.572106 44.9935 0.734537 51.072 3.01007 57.8598C6.08881 67.0424 11.5936 73.0435 18.9269 75.2147C20.7076 75.7437 22.6658 76 24.913 76H35.1327C39.7032 76 44.1231 74.6767 47.9127 72.1747L48.2971 71.9198C58.9312 64.7699 62.7774 51.1003 57.2443 40.1235C55.6036 36.8689 53.3444 34.276 50.5145 32.4013C51.0823 31.692 51.7544 30.8068 52.4488 29.8039H60.405C62.1709 29.8039 63.8056 29.3494 65.1349 28.4926C69.1524 25.8981 72.0106 20.8851 73.3578 18.1267C73.6975 17.4278 73.6558 16.6172 73.243 15.9585ZM54.5843 41.4647C59.4423 51.1033 56.0253 63.1336 46.5834 69.4804L46.2734 69.6875C42.9697 71.8677 39.1175 73.0196 35.1327 73.0196H24.913C22.9563 73.0196 21.2769 72.802 19.7733 72.358C4.27524 67.7682 3.5525 44.9011 3.53909 44.5524C2.68669 36.2878 5.98748 30.4194 8.03054 27.658L6.83242 26.7714L8.21532 27.6387L17.0716 36.4934C18.903 38.3278 20.9416 39.6437 23.1262 40.4052C26.0858 41.4364 28.5073 41.3082 30.3343 40.0267C33.0062 38.152 33.3341 34.5413 33.3505 33.0838C33.3609 32.4922 33.1299 31.9394 32.7022 31.5296C32.5055 31.3418 32.1866 31.084 31.7768 30.7576C29.5713 29.0052 24.4078 24.9027 24.4078 17.8809C24.4078 9.66392 31.0928 2.9789 39.3098 2.9789C46.9679 2.9789 53.2893 8.78769 54.1149 16.2297L54.1417 16.5263C54.1819 16.9733 54.2117 17.4234 54.2117 17.8809C54.2117 18.3413 54.1551 18.8256 54.0716 19.3189C54.0567 19.4083 54.0433 19.4962 54.0254 19.5871C53.8228 20.6303 53.4607 21.73 52.9749 22.8507C52.9659 22.8715 52.957 22.8924 52.948 22.9133C52.4473 24.0562 51.8259 25.2141 51.136 26.3437C51.0778 26.4376 51.0152 26.5329 50.9556 26.6283C49.92 28.2899 48.7501 29.8814 47.6027 31.2509C47.2033 31.7263 47.0349 32.3492 47.1392 32.9587C47.245 33.5801 47.6206 34.121 48.169 34.4459C50.8886 36.0538 53.0479 38.4143 54.5843 41.4647ZM63.5195 25.9875C62.6731 26.5344 61.5956 26.8235 60.405 26.8235H54.3265C54.5455 26.4361 54.7571 26.0412 54.9628 25.6388C54.9851 25.5971 55.006 25.5554 55.0269 25.5136C55.1878 25.1962 55.3428 24.8744 55.4918 24.5495C55.5335 24.4571 55.5782 24.3647 55.6185 24.2738C55.7347 24.013 55.8435 23.7522 55.9493 23.4885C55.9985 23.3663 56.0521 23.2441 56.0983 23.1234C56.1818 22.9058 56.2563 22.6867 56.3323 22.4677C56.3829 22.3187 56.441 22.1682 56.4872 22.0221C56.526 21.9029 56.5543 21.7822 56.5901 21.6615C56.748 21.1265 56.8792 20.602 56.973 20.0923C56.9835 20.0402 56.9969 19.9865 57.0058 19.9344C57.0505 19.6795 57.0789 19.4322 57.1072 19.1848C57.1191 19.0879 57.137 18.9911 57.1459 18.8942C57.1772 18.5515 57.1936 18.2132 57.1936 17.8838H70.1374C68.8976 20.21 66.5312 24.0428 63.5195 25.9875Z" fill="#5D62B5"/>
<path d="M49.7423 14.9017C49.7423 10.7932 46.3998 7.45068 42.2913 7.45068C38.1828 7.45068 34.8403 10.7932 34.8403 14.9017C34.8403 19.0101 38.1828 22.3526 42.2913 22.3526C46.3998 22.3526 49.7423 19.0101 49.7423 14.9017ZM37.8207 14.9017C37.8207 12.4369 39.8265 10.4311 42.2913 10.4311C44.3478 10.4311 46.0675 11.8348 46.5861 13.7289C46.1882 13.5322 45.7456 13.4115 45.2717 13.4115C43.625 13.4115 42.2913 14.7452 42.2913 16.3919C42.2913 17.5587 42.9679 18.5571 43.9439 19.0474C43.4313 19.2515 42.8755 19.3723 42.2913 19.3723C39.8265 19.3723 37.8207 17.3664 37.8207 14.9017Z" fill="#5D62B5"/>
<path d="M39.1221 44.0414C36.7363 42.7494 33.8036 42.9685 30.3911 44.6986C26.9189 46.4615 22.9326 47.8295 18.2057 48.8816L17.641 49.0068C16.9525 49.1602 16.3683 49.6043 16.042 50.2257C15.7156 50.8427 15.6769 51.5669 15.9362 52.2151C17.1805 55.3446 21.9983 65.5405 31.7948 65.5867C31.9155 65.5956 32.145 65.6105 32.458 65.6105C33.9139 65.6105 37.1804 65.311 39.8672 62.8984C42.4661 60.5632 43.7835 56.9555 43.7835 52.1764L43.7745 52.0169C43.7477 51.78 43.1054 46.2022 39.1221 44.0414ZM37.8987 60.6586C35.4101 62.9162 32.0452 62.6152 32.0199 62.6152L31.8619 62.6063C24.4541 62.6063 20.374 54.9973 18.9762 51.7636C23.8968 50.6609 28.0738 49.2184 31.7427 47.3556C34.2164 46.0994 36.2192 45.8595 37.693 46.6552C40.1221 47.9636 40.7271 51.7189 40.8031 52.2673C40.7852 56.1016 39.8091 58.924 37.8987 60.6586Z" fill="#5D62B5"/>
</svg>
