<svg width="76" height="76" viewBox="0 0 76 76" fill="none" xmlns="http://www.w3.org/2000/svg">
<g clip-path="url(#clip0_663:317)">
<path d="M67.1325 8.49681V1.26667C67.1325 0.567155 66.5659 0 65.8658 0H25.3325C24.633 0 24.0658 0.567155 24.0658 1.26667V8.54381L16.6204 22.1933C16.519 22.3794 16.4658 22.5879 16.4658 22.8V49.4H18.9992V23.1229L26.0852 10.1333H63.732L57.1538 22.1933C57.0523 22.3794 56.9991 22.5879 56.9991 22.8V68.4H46.8658V70.9333H69.6658C73.1621 70.929 75.9954 68.0963 75.9991 64.6V22.8C75.9985 22.5594 75.9305 22.3238 75.8018 22.1197L67.1325 8.49681ZM26.5992 7.6V2.53333H64.5991V7.6H26.5992ZM73.4658 64.6C73.4658 66.6985 71.765 68.4 69.6658 68.4H59.5325V23.1229L65.9499 11.3579L73.4658 23.1686V64.6Z" fill="#5D62B5"/>
<path d="M18.2546 53.5323C17.6837 53.3128 17.0776 53.2002 16.4659 53.2002C14.1564 53.2027 12.1402 54.7644 11.5606 57.0002H11.3992C8.60117 57.0002 6.33255 59.2688 6.33255 62.0669H5.06589C4.521 62.0675 4.03734 62.4163 3.8654 62.9334L0.0653988 74.3334C-0.0632471 74.7193 0.00169436 75.1436 0.239194 75.4739C0.477313 75.8041 0.858921 76.0002 1.26589 76.0002H44.3326C44.7395 76.0002 45.1217 75.8041 45.3599 75.4739C45.5974 75.1436 45.6623 74.7193 45.5337 74.3334L41.7337 62.9334C41.5617 62.4163 41.0781 62.0675 40.5326 62.0669H39.2659C39.2659 59.2688 36.9979 57.0002 34.1992 57.0002H34.0384C33.4589 54.7644 31.4426 53.2027 29.1326 53.2002C28.5215 53.2002 27.9154 53.3128 27.3445 53.5323C26.5077 51.7814 24.7394 50.6675 22.7992 50.6675C20.859 50.6675 19.0914 51.7814 18.2546 53.5323V53.5323ZM39.6197 64.6002L42.5748 73.4669H3.02425L5.9794 64.6002H39.6197ZM25.306 55.561C25.3394 56.0471 25.6486 56.4702 26.1007 56.6507C26.5528 56.8313 27.068 56.7367 27.4268 56.4077C28.1628 55.7212 29.2365 55.5387 30.158 55.9426C31.0796 56.3471 31.6727 57.2606 31.6659 58.2669C31.6659 58.9664 32.233 59.5335 32.9326 59.5335H34.1992C35.5989 59.5335 36.7326 60.6678 36.7326 62.0669H8.86589C8.86589 60.6678 10.0002 59.5335 11.3992 59.5335H12.6659C13.366 59.5335 13.9326 58.9664 13.9326 58.2669C13.9276 57.2618 14.5201 56.3495 15.4404 55.9451C16.3607 55.5412 17.4338 55.723 18.1698 56.4077C18.5285 56.7367 19.0438 56.8313 19.4959 56.6507C19.948 56.4702 20.2566 56.0471 20.29 55.561C20.3741 54.2374 21.4726 53.2064 22.7992 53.2064C24.1259 53.2064 25.2243 54.2374 25.3091 55.561H25.306Z" fill="#5D62B5"/>
<path d="M31.665 30.3999H34.1984V32.9332H31.665V30.3999Z" fill="#5D62B5"/>
<path d="M44.332 30.3999H46.8654V32.9332H44.332V30.3999Z" fill="#5D62B5"/>
<path d="M50.6326 15.5082L45.1268 20.2668H33.9903L28.0026 15.4779C27.4986 15.074 26.7719 15.1148 26.3154 15.5713C24.8273 17.0569 24.0146 19.0886 24.0684 21.1902C24.1222 23.2925 25.037 25.2797 26.5987 26.6874V40.5335C26.5987 47.5292 32.2702 53.2002 39.2654 53.2002C46.2611 53.2002 51.932 47.5292 51.932 40.5335V26.8408C53.4424 25.443 54.3466 23.5108 54.453 21.4562C54.5817 19.3082 53.8376 17.1985 52.391 15.6053C51.9271 15.1043 51.149 15.061 50.6326 15.5082V15.5082ZM26.608 21.2867C26.5498 20.2149 26.8275 19.1523 27.4033 18.2462L31.3085 21.3714L28.0899 24.5888C27.211 23.7044 26.684 22.5305 26.608 21.2867ZM39.2654 50.6668C37.8923 50.6668 36.732 49.7966 36.732 48.7668C36.732 47.737 37.8923 46.8668 39.2654 46.8668C40.6384 46.8668 41.7987 47.737 41.7987 48.7668C41.7987 49.7966 40.6384 50.6668 39.2654 50.6668V50.6668ZM49.3987 40.5335C49.395 44.177 47.435 47.5373 44.2665 49.3358C44.3023 49.1478 44.3246 48.9579 44.332 48.7668C44.1434 46.1506 41.8841 44.1733 39.2654 44.3335C36.6473 44.1733 34.3879 46.1506 34.1987 48.7668C34.2067 48.9579 34.229 49.1478 34.2649 49.3358C31.0957 47.5373 29.1363 44.177 29.132 40.5335V27.1246L33.4565 22.8002H45.0748L47.6082 25.3335H45.5987C42.1011 25.3335 39.2654 28.1693 39.2654 31.6668C39.2654 35.1644 42.1011 38.0002 45.5987 38.0002H49.3987V40.5335ZM49.3987 35.4668H45.5987C43.5002 35.4668 41.7987 33.7654 41.7987 31.6668C41.7987 29.5683 43.5002 27.8668 45.5987 27.8668H49.3987V35.4668ZM50.5126 24.6556L47.4585 21.6021L51.2499 18.3235C51.7508 19.2377 51.9846 20.2749 51.9234 21.3158C51.8547 22.5589 51.3556 23.7396 50.5126 24.6556V24.6556Z" fill="#5D62B5"/>
<path d="M69.6654 55.7334H63.3321C62.6326 55.7334 62.0654 56.3006 62.0654 57.0001V62.0667C62.0654 62.7662 62.6326 63.3334 63.3321 63.3334H69.6654C70.3656 63.3334 70.9321 62.7662 70.9321 62.0667V57.0001C70.9321 56.3006 70.3656 55.7334 69.6654 55.7334ZM68.3988 60.8001H64.5988V58.2667H68.3988V60.8001Z" fill="#5D62B5"/>
<path d="M62.0654 50.6665H68.3988V53.1998H62.0654V50.6665Z" fill="#5D62B5"/>
<path d="M62.0654 45.6001H70.9321V48.1334H62.0654V45.6001Z" fill="#5D62B5"/>
<path d="M46.8652 63.3335H54.4652V65.8668H46.8652V63.3335Z" fill="#5D62B5"/>
<path d="M46.8652 58.2666H54.4652V60.7999H46.8652V58.2666Z" fill="#5D62B5"/>
<path d="M62.0654 40.5332H70.9321V43.0665H62.0654V40.5332Z" fill="#5D62B5"/>
<path d="M62.0654 35.4668H65.8654V38.0001H62.0654V35.4668Z" fill="#5D62B5"/>
<path d="M68.3989 35.4668H70.9323V38.0001H68.3989V35.4668Z" fill="#5D62B5"/>
<path d="M62.0654 22.7998H70.9321V25.3331H62.0654V22.7998Z" fill="#5D62B5"/>
<path d="M62.0654 27.8667H70.9321V30.4H62.0654V27.8667Z" fill="#5D62B5"/>
</g>
<defs>
<clipPath id="clip0_663:317">
<rect width="76" height="76" fill="white"/>
</clipPath>
</defs>
</svg>
