<svg width="76" height="76" viewBox="0 0 76 76" fill="none" xmlns="http://www.w3.org/2000/svg">
<path d="M26.6001 53.2002H19.0001C18.3006 53.2002 17.7334 53.7674 17.7334 54.4669V62.0669C17.7334 62.7664 18.3006 63.3335 19.0001 63.3335H26.6001C27.2996 63.3335 27.8667 62.7664 27.8667 62.0669V54.4669C27.8667 53.7674 27.2996 53.2002 26.6001 53.2002ZM25.3334 60.8002H20.2667V55.7335H25.3334V60.8002Z" fill="#5D62B5"/>
<path d="M44.3333 39.2666H31.6666C30.2676 39.2666 29.1333 40.4009 29.1333 41.7999V46.8666C29.1333 48.2656 30.2676 49.3999 31.6666 49.3999H44.3333C45.7323 49.3999 46.8666 48.2656 46.8666 46.8666V41.7999C46.8666 40.4009 45.7323 39.2666 44.3333 39.2666ZM44.3333 43.0666H39.2666V41.7999H44.3333V43.0666ZM36.7333 41.7999V43.0666H31.6666V41.7999H36.7333ZM31.6666 45.5999H36.7333V46.8666H31.6666V45.5999ZM39.2666 46.8666V45.5999H44.3333V46.8666H39.2666Z" fill="#5D62B5"/>
<path d="M69.5566 64.6871C69.2411 63.0215 68.2714 61.5513 66.8631 60.6069C65.4554 59.6618 63.7279 59.3204 62.0667 59.66V37.2577L64.3378 39.5288C65.8815 41.0725 68.3852 41.0725 69.9289 39.5288C71.4727 37.985 71.4727 35.4814 69.9289 33.9376L62.0667 26.0754V10.1332C63.4657 10.1332 64.6 8.99889 64.6 7.59987V5.06654C64.6 3.66751 63.4657 2.5332 62.0667 2.5332H49.4C48.001 2.5332 46.8667 3.66751 46.8667 5.06654V7.59987C46.8667 8.99889 48.001 10.1332 49.4 10.1332V13.4087L40.6867 4.69544C39.1832 3.26055 36.8168 3.26055 35.3133 4.69544L6.07109 33.9376C4.52734 35.4814 4.52734 37.985 6.07109 39.5288C7.61484 41.0725 10.1185 41.0725 11.6622 39.5288L13.9333 37.2577V63.8169C12.5541 62.2168 10.3232 61.6453 8.34466 62.3857C6.36549 63.1254 5.05739 65.0204 5.06667 67.1332C2.26862 67.1332 0 69.4018 0 72.1999C0 72.8994 0.567155 73.4665 1.26667 73.4665H74.7333C75.4328 73.4665 76 72.8994 76 72.1999C75.9951 68.4506 73.2613 65.2629 69.5566 64.6871V64.6871ZM58.2568 62.1185C58.2568 62.1006 58.2667 62.0857 58.2667 62.0665V54.4665C58.2667 53.767 57.6995 53.1999 57 53.1999H49.4C48.7005 53.1999 48.1333 53.767 48.1333 54.4665V62.0665C48.1333 62.766 48.7005 63.3332 49.4 63.3332H57C57.2307 63.327 57.4552 63.2565 57.6476 63.1291C57.227 63.9808 57.0056 64.9172 57 65.8665V65.9933C54.518 66.5073 52.5803 68.45 52.0725 70.9332H46.8667V51.9332C46.8667 51.2337 46.2995 50.6665 45.6 50.6665H30.4C29.7005 50.6665 29.1333 51.2337 29.1333 51.9332V70.9332H21.4208C20.9563 68.2174 19.0618 65.9643 16.4667 65.0409V35.4665H59.5333V60.8326C59.0478 61.1976 58.618 61.6305 58.2568 62.1185ZM55.7333 55.7332V60.7999H50.6667V55.7332H55.7333ZM49.4 5.06654H62.0667V7.59987H49.4V5.06654ZM51.9333 10.1332H59.5333V23.5421L51.9333 15.9421V10.1332ZM9.87109 37.7376C9.31631 38.2924 8.41702 38.2924 7.86224 37.7376C7.30745 37.1828 7.30745 36.2836 7.86224 35.7288L37.1044 6.48659C37.5992 5.9918 38.4008 5.9918 38.8956 6.48659L68.1378 35.7288C68.6925 36.2836 68.6925 37.1828 68.1378 37.7376C67.583 38.2924 66.6837 38.2924 66.1289 37.7376L40.6867 12.2954C39.203 10.8117 36.797 10.8117 35.3133 12.2954L9.87109 37.7376ZM37.1044 14.0866C37.5992 13.5918 38.4008 13.5918 38.8956 14.0866L57.7422 32.9332H18.2578L37.1044 14.0866ZM2.87412 70.9332C3.54085 69.7847 4.98441 69.3493 6.175 69.9374C6.66175 70.1774 7.24684 70.0809 7.63031 69.6968C8.01439 69.3134 8.11087 68.7283 7.8709 68.2415C7.69648 67.8977 7.60371 67.5185 7.6 67.1332C7.59443 65.8968 8.48506 64.8392 9.7041 64.6339C10.9231 64.4285 12.1113 65.1361 12.5108 66.3063C12.6945 66.8326 13.201 67.1777 13.7583 67.1548C13.8177 67.1555 13.8764 67.148 13.9333 67.1332C16.2428 67.1369 18.259 68.698 18.8404 70.9332H2.87412ZM31.6667 70.9332V53.1999H44.3333V70.9332H31.6667ZM54.6831 70.9332C55.2027 69.4358 56.6035 68.4234 58.1881 68.3999C58.2314 68.3999 58.3576 68.419 58.4009 68.4203C58.8017 68.432 59.1851 68.2576 59.4393 67.9478C59.6917 67.6342 59.7795 67.2192 59.6762 66.8308C59.5865 66.5166 59.5389 66.1925 59.5333 65.8665C59.5333 63.768 61.2348 62.0665 63.3333 62.0665C65.4319 62.0665 67.1333 63.768 67.1333 65.8665C67.1333 66.566 67.7005 67.1332 68.4 67.1332C70.7094 67.1369 72.7257 68.698 73.3071 70.9332H54.6831Z" fill="#5D62B5"/>
<path d="M35.4664 57H32.9331V59.5333H34.1998V62.0667H32.9331V64.6H35.4664C36.166 64.6 36.7331 64.0329 36.7331 63.3333V58.2667C36.7331 57.5672 36.166 57 35.4664 57Z" fill="#5D62B5"/>
</svg>
