<svg width="63" height="63" viewBox="0 0 63 63" fill="none" xmlns="http://www.w3.org/2000/svg">
<path d="M56.9953 29.5313C57.1533 28.7573 57.1227 27.9567 56.906 27.1971C56.6894 26.4374 56.293 25.7411 55.7506 25.1669C55.2081 24.5927 54.5354 24.1575 53.7893 23.8981C53.0432 23.6387 52.2456 23.5627 51.4639 23.6765C51.0633 23.207 50.5257 22.8749 49.9266 22.7268C49.3275 22.5788 48.697 22.6223 48.1239 22.8512C47.4847 21.857 46.6003 21.0441 45.556 20.4907C44.5116 19.9374 43.3424 19.6621 42.1608 19.6915C42.0094 19.2609 41.7602 18.8713 41.4328 18.5533C41.1054 18.2353 40.7087 17.9975 40.2739 17.8587C39.8391 17.7198 39.3781 17.6837 38.927 17.7531C38.4759 17.8225 38.047 17.9955 37.674 18.2586C36.0214 16.65 33.8062 15.75 31.5 15.75C29.1938 15.75 26.9787 16.65 25.326 18.2586C24.9531 17.9955 24.5242 17.8225 24.0731 17.7531C23.622 17.6837 23.1609 17.7198 22.7261 17.8587C22.2913 17.9975 21.8947 18.2353 21.5673 18.5533C21.2399 18.8713 20.9907 19.2609 20.8392 19.6915C19.6577 19.6621 18.4885 19.9374 17.4442 20.4908C16.3999 21.0442 15.5156 21.8571 14.8764 22.8512C14.3033 22.6223 13.6728 22.5788 13.0737 22.7268C12.4746 22.8749 11.937 23.207 11.5364 23.6765C10.7549 23.5635 9.95764 23.6401 9.21191 23.8998C8.46618 24.1595 7.79383 24.5947 7.25152 25.1687C6.70922 25.7427 6.31286 26.4386 6.09587 27.1979C5.87888 27.9571 5.84761 28.7574 6.00471 29.5313L7.87502 30.5157H56.1094L56.9953 29.5313Z" fill="#A45E14"/>
<path d="M60.0469 49.2188H2.95312V45.2812L4.92188 44.2969H59.0625L60.0469 45.2812V49.2188Z" fill="#50559F"/>
<path d="M60.0469 45.2812H2.95312L5.90625 29.5312H57.0938L60.0469 45.2812Z" fill="#5D62B5"/>
<path d="M39.7811 37.4061C40.0827 37.2026 40.3278 36.9261 40.4936 36.6022C40.6593 36.2783 40.7403 35.9178 40.729 35.5541C40.7177 35.1905 40.6144 34.8356 40.4289 34.5227C40.2433 34.2098 39.9814 33.949 39.6678 33.7647C39.3541 33.5803 38.9989 33.4784 38.6352 33.4686C38.2715 33.4587 37.9113 33.5411 37.5881 33.7082C37.2649 33.8752 36.9893 34.1214 36.787 34.4238C36.5847 34.7262 36.4623 35.0749 36.4313 35.4374H26.7534C26.7221 35.0752 26.5996 34.7268 26.3973 34.4247C26.195 34.1226 25.9194 33.8767 25.5964 33.7099C25.2734 33.5431 24.9134 33.4609 24.5499 33.4708C24.1865 33.4807 23.8315 33.5826 23.5181 33.7668C23.2047 33.951 22.943 34.2116 22.7575 34.5242C22.572 34.8369 22.4687 35.1915 22.4573 35.5549C22.4458 35.9182 22.5266 36.2786 22.6921 36.6023C22.8576 36.926 23.1023 37.2026 23.4036 37.4061C23.102 37.6096 22.8568 37.8862 22.6911 38.21C22.5253 38.5339 22.4443 38.8945 22.4556 39.2581C22.4669 39.6217 22.5702 39.9766 22.7558 40.2895C22.9414 40.6024 23.2032 40.8632 23.5168 41.0476C23.8305 41.2319 24.1858 41.3338 24.5494 41.3437C24.9131 41.3535 25.2734 41.2711 25.5966 41.1041C25.9198 40.937 26.1954 40.6908 26.3977 40.3885C26.6 40.0861 26.7223 39.7374 26.7534 39.3749H36.4313C36.4625 39.7371 36.585 40.0855 36.7874 40.3875C36.9897 40.6896 37.2652 40.9355 37.5882 41.1023C37.9113 41.2691 38.2713 41.3514 38.6347 41.3414C38.9981 41.3315 39.3531 41.2297 39.6665 41.0455C39.98 40.8613 40.2417 40.6007 40.4272 40.288C40.6127 39.9753 40.7159 39.6208 40.7274 39.2574C40.7388 38.894 40.658 38.5336 40.4926 38.2099C40.3271 37.8862 40.0823 37.6097 39.7811 37.4061V37.4061Z" fill="#29C3BE"/>
<path d="M23.625 23.625C25.256 23.625 26.5781 22.3028 26.5781 20.6719C26.5781 19.0409 25.256 17.7188 23.625 17.7188C21.994 17.7188 20.6719 19.0409 20.6719 20.6719C20.6719 22.3028 21.994 23.625 23.625 23.625Z" fill="#62B58F"/>
<path d="M27.5625 25.5938C29.1935 25.5938 30.5156 24.2716 30.5156 22.6406C30.5156 21.0097 29.1935 19.6875 27.5625 19.6875C25.9315 19.6875 24.6094 21.0097 24.6094 22.6406C24.6094 24.2716 25.9315 25.5938 27.5625 25.5938Z" fill="#F2726F"/>
<path d="M13.7812 28.5469C15.4122 28.5469 16.7344 27.2247 16.7344 25.5938C16.7344 23.9628 15.4122 22.6406 13.7812 22.6406C12.1503 22.6406 10.8281 23.9628 10.8281 25.5938C10.8281 27.2247 12.1503 28.5469 13.7812 28.5469Z" fill="#F2726F"/>
<path d="M49.2188 28.5469C50.8497 28.5469 52.1719 27.2247 52.1719 25.5938C52.1719 23.9628 50.8497 22.6406 49.2188 22.6406C47.5878 22.6406 46.2656 23.9628 46.2656 25.5938C46.2656 27.2247 47.5878 28.5469 49.2188 28.5469Z" fill="#62B58F"/>
<path d="M39.375 23.625C41.006 23.625 42.3281 22.3028 42.3281 20.6719C42.3281 19.0409 41.006 17.7188 39.375 17.7188C37.744 17.7188 36.4219 19.0409 36.4219 20.6719C36.4219 22.3028 37.744 23.625 39.375 23.625Z" fill="#F2726F"/>
</svg>
