<svg width="63" height="63" viewBox="0 0 63 63" fill="none" xmlns="http://www.w3.org/2000/svg">
<path d="M36.75 39.6916H26.25L27.5704 38.6537C29.3523 37.2525 29.896 34.8182 28.875 32.8123L28.7175 32.4451L30.352 31.9524H32.9219L34.2816 32.446L34.125 32.8123C33.1047 34.8182 33.6487 37.2519 35.4305 38.6528L36.75 39.6916Z" fill="#FBB540"/>
<path d="M36.75 43.9914H26.25V39.6919L27.125 39.3694H35.875L36.75 39.6919V43.9914Z" fill="#FBB540"/>
<path d="M30.352 31.9524L28.7192 32.446L28.8759 32.8123C29.2287 33.5109 29.4009 34.2841 29.3772 35.0636C30.7811 35.4259 32.2638 35.3618 33.6297 34.8796C33.6337 34.1625 33.8033 33.4556 34.1259 32.8123L34.2834 32.4451L32.9227 31.9524H30.352Z" fill="#EA9D2D"/>
<path d="M26.25 41.4116H36.75V44.8513H26.25V41.4116Z" fill="#EA9D2D"/>
<path d="M26.25 39.375H36.75V49.875H26.25V39.375Z" fill="#5D62B5"/>
<path d="M26.25 42H36.75V44.625H26.25V42Z" fill="#50559F"/>
<path d="M26.25 47.25H36.75V49.875H26.25V47.25Z" fill="#50559F"/>
<path d="M18.375 47.25H44.625V57.75H18.375V47.25Z" fill="#5D62B5"/>
<path d="M19.7324 50.0105H21.5428V57.7497H19.7324V50.0105Z" fill="#50559F"/>
<path d="M23.3535 50.0105H25.1639V57.7497H23.3535V50.0105Z" fill="#50559F"/>
<path d="M37.8369 50.0105H39.6473V57.7497H37.8369V50.0105Z" fill="#50559F"/>
<path d="M41.4565 50.0105H43.2669V57.7497H41.4565V50.0105Z" fill="#50559F"/>
<path d="M19.7324 11.3145H44.1721V14.7541H19.7324V11.3145Z" fill="#FBB540"/>
<path d="M41.4561 25.0731V21.6334H43.2664C46.7641 21.6297 49.5986 18.9368 49.6026 15.614V14.7541H42.3612V11.3145H51.413C52.4128 11.3145 53.2233 12.0844 53.2233 13.0343V15.614C53.2169 20.8355 48.7627 25.0669 43.2664 25.0731H41.4561Z" fill="#FBB540"/>
<path d="M21.5431 25.0731V21.6334H19.7328C16.2351 21.6297 13.4005 18.9368 13.3966 15.614V14.7541H20.6379V11.3145H11.5862C10.5863 11.3145 9.77588 12.0844 9.77588 13.0343V15.614C9.78233 20.8355 14.2365 25.0669 19.7328 25.0731H21.5431Z" fill="#FBB540"/>
<path d="M20.6387 7.875H42.3628V22.4935C42.3628 28.1925 37.4997 32.8125 31.5007 32.8125C25.5018 32.8125 20.6387 28.1925 20.6387 22.4935V7.875Z" fill="#FBB540"/>
<path d="M20.6387 7.875H42.3628V13.0345H20.6387V7.875Z" fill="#FBB540"/>
<path d="M23.625 13.125H39.375V15.75H23.625V13.125Z" fill="#EA9D2D"/>
</svg>
